#!OML:ASF F:\twosubjects\two\wednesday\Session 1\rory1.ASF
:FULLY-SPECIFIED
:DEGREES
34
root 9.21617 17.8907 -21.074 2.31081 -13.8451 4.91514
lowerback 3.68001 -0.707247 -8.98623
upperback 0.956642 -1.29426 -1.05209
thorax -0.899455 -0.63958 4.00147
lowerneck -14.7087 -2.51524 -3.69973
upperneck 9.38941 -3.09673 3.63499
head 5.34136 -1.38632 1.46716
rclavicle -5.46658e-016 1.78906e-015
rhumerus -39.5677 -19.6143 -60.7801
rradius 58.2062
rwrist -5.7658
rhand -19.529 39.5676
rfingers 7.12502
rthumb 6.79446 9.69665
lclavicle -5.46658e-016 1.78906e-015
lhumerus -28.2828 6.88392 78.9868
lradius 23.1066
lwrist -9.38777
lhand -20.0134 16.6816
lfingers 7.12502
lthumb 6.32692 46.5671
rfemur -22.5109 2.68055 12.0359
rtibia 62.3193
rfoot -5.97726 -4.01279
rtoes -1.95058
lfemur -14.6117 -0.280438 -28.7918
ltibia 30.0752
lfoot -16.9819 4.15298
ltoes -8.93692
35
root 9.20958 17.874 -20.9403 2.46116 -13.5977 4.82348
lowerback 3.612 -0.665244 -8.90213
upperback 0.834503 -1.23442 -1.01745
thorax -0.997674 -0.601864 3.98847
lowerneck -14.8251 -2.59808 -3.60667
upperneck 9.62574 -3.22942 3.63264
head 5.43817 -1.44573 1.43783
rclavicle -5.54112e-015 -3.65764e-014
rhumerus -39.8084 -20.1979 -59.8111
rradius 59.5485
rwrist -5.84484
rhand -19.4347 38.815
rfingers 7.12502
rthumb 6.88556 8.94698
lclavicle -5.54112e-015 -3.65764e-014
lhumerus -27.7235 5.41526 79.4546
lradius 23.8298
lwrist -8.1927
lhand -22.1824 15.7235
lfingers 7.12502
lthumb 4.23261 45.6612
rfemur -23.5816 2.67148 12.2675
rtibia 61.4633
rfoot -7.4222 -5.50696
rtoes -4.11846
lfemur -14.383 -0.296689 -28.8054
ltibia 30.2473
lfoot -17.0858 4.09793
ltoes -8.86218
36
root 9.19703 17.8652 -20.8001 2.45234 -13.3755 4.90443
lowerback 3.624 -0.550841 -9.039
upperback 0.858888 -1.08744 -1.0276
thorax -0.996267 -0.529184 4.04863
lowerneck -15.5358 -2.7366 -3.32207
upperneck 9.99966 -3.4385 3.44825
head 5.67217 -1.54127 1.30651
rclavicle 1.76421e-015 -2.14687e-014
rhumerus -40.099 -20.8058 -58.8544
rradius 61.0028
rwrist -5.95905
rhand -19.8876 38.7071
rfingers 7.12502
rthumb 6.44831 8.82531
lclavicle 1.76421e-015 -2.14687e-014
lhumerus -26.8054 4.07684 79.9016
lradius 24.3385
lwrist -7.26196
lhand -23.9992 14.5844
lfingers 7.12502
lthumb 2.47815 44.5497
rfemur -24.491 2.67223 12.2906
rtibia 60.5198
rfoot -8.65266 -6.40251
rtoes -4.21013
lfemur -13.9792 -0.223459 -28.9947
ltibia 30.4198
lfoot -17.2714 4.10097
ltoes -9.87666
37
root 9.1833 17.8596 -20.6554 2.37547 -13.1982 5.1831
lowerback 3.55406 -0.554001 -9.46102
upperback 0.567472 -1.11684 -0.989445
thorax -1.24765 -0.522213 4.32674
lowerneck -14.6982 -2.82917 -3.42074
upperneck 10.0926 -3.56612 3.41248
head 5.56901 -1.61859 1.30722
rclavicle 2.41026e-014 1.98785e-015
rhumerus -40.6938 -20.7728 -57.7522
rradius 62.3023
rwrist -6.09795
rhand -19.8749 39.7761
rfingers 7.12502
rthumb 6.46054 9.8946
lclavicle 2.41026e-014 1.98785e-015
lhumerus -26.8719 3.14504 80.2349
lradius 25.2125
lwrist -6.38279
lhand -21.6177 15.8874
lfingers 7.12502
lthumb 4.77791 45.8136
rfemur -25.2943 2.64532 12.0549
rtibia 59.4491
rfoot -9.83574 -6.82466
rtoes -3.67666
lfemur -13.4543 -0.0961135 -29.3903
ltibia 30.4755
lfoot -17.5732 3.98148
ltoes -10.5738
38
root 9.17322 17.8525 -20.5147 2.27042 -12.9544 5.22727
lowerback 3.64948 -0.643452 -9.59135
upperback 0.257151 -1.26986 -0.909593
thorax -1.59866 -0.571265 4.49412
lowerneck -13.7432 -2.79506 -3.7403
upperneck 10.0315 -3.52993 3.73588
head 5.40263 -1.60066 1.47411
rclavicle -7.60351e-015 1.41137e-014
rhumerus -40.9336 -20.9509 -56.6878
rradius 63.2628
rwrist -5.9025
rhand -19.6034 40.3409
rfingers 7.12502
rthumb 6.72268 10.4676
lclavicle -7.60351e-015 1.41137e-014
lhumerus -27.0305 2.54212 80.3801
lradius 26.1809
lwrist -6.16614
lhand -18.3548 17.118
lfingers 7.12502
lthumb 7.92795 46.9493
rfemur -25.9532 2.62445 12.0776
rtibia 58.2226
rfoot -10.6493 -7.40523
rtoes -3.53434
lfemur -12.7731 -0.111548 -29.5339
ltibia 30.3627
lfoot -17.7674 3.94402
ltoes -11.3273
